<svg width="10" height="10" viewBox="0 0 10 10" fill="none" xmlns="http://www.w3.org/2000/svg">
<path d="M9.44 4.71502C9.4043 4.62295 9.35078 4.53885 9.2825 4.46752L5.5325 0.717517C5.46257 0.647588 5.37955 0.592118 5.28819 0.554272C5.19682 0.516427 5.09889 0.496948 5 0.496948C4.80027 0.496948 4.60873 0.576289 4.4675 0.717517C4.39757 0.787446 4.3421 0.870464 4.30425 0.96183C4.26641 1.0532 4.24693 1.15112 4.24693 1.25002C4.24693 1.44974 4.32627 1.64129 4.4675 1.78252L6.9425 4.25002H1.25C1.05109 4.25002 0.860322 4.32904 0.71967 4.46969C0.579018 4.61034 0.5 4.80111 0.5 5.00002C0.5 5.19893 0.579018 5.3897 0.71967 5.53035C0.860322 5.671 1.05109 5.75002 1.25 5.75002H6.9425L4.4675 8.21752C4.3972 8.28724 4.34141 8.37019 4.30333 8.46158C4.26525 8.55298 4.24565 8.65101 4.24565 8.75002C4.24565 8.84903 4.26525 8.94706 4.30333 9.03845C4.34141 9.12984 4.3972 9.21279 4.4675 9.28252C4.53722 9.35281 4.62017 9.40861 4.71157 9.44669C4.80296 9.48476 4.90099 9.50437 5 9.50437C5.09901 9.50437 5.19704 9.48476 5.28843 9.44669C5.37983 9.40861 5.46278 9.35281 5.5325 9.28252L9.2825 5.53252C9.35078 5.46119 9.4043 5.37708 9.44 5.28502C9.51501 5.10242 9.51501 4.89761 9.44 4.71502Z" fill="black"/>
</svg>
