<?xml version="1.0" encoding="UTF-8" standalone="no"?>
<svg
   xmlns:dc="http://purl.org/dc/elements/1.1/"
   xmlns:cc="http://creativecommons.org/ns#"
   xmlns:rdf="http://www.w3.org/1999/02/22-rdf-syntax-ns#"
   xmlns:svg="http://www.w3.org/2000/svg"
   xmlns="http://www.w3.org/2000/svg"
   xmlns:sodipodi="http://sodipodi.sourceforge.net/DTD/sodipodi-0.dtd"
   xmlns:inkscape="http://www.inkscape.org/namespaces/inkscape"
   width="60"
   height="40"
   viewBox="0 0 60 40.000002"
   version="1.1"
   id="svg6"
   sodipodi:docname="manage.svg"
   inkscape:version="1.0 (4035a4fb49, 2020-05-01)">
  <metadata
     id="metadata12">
    <rdf:RDF>
      <cc:Work
         rdf:about="">
        <dc:format>image/svg+xml</dc:format>
        <dc:type
           rdf:resource="http://purl.org/dc/dcmitype/StillImage" />
        <dc:title></dc:title>
      </cc:Work>
    </rdf:RDF>
  </metadata>
  <defs
     id="defs10" />
  <sodipodi:namedview
     pagecolor="#ffffff"
     bordercolor="#666666"
     borderopacity="1"
     objecttolerance="10"
     gridtolerance="10"
     guidetolerance="10"
     inkscape:pageopacity="0"
     inkscape:pageshadow="2"
     inkscape:window-width="1920"
     inkscape:window-height="1027"
     id="namedview8"
     showgrid="false"
     inkscape:zoom="6.4590293"
     inkscape:cx="-36.271463"
     inkscape:cy="18.268999"
     inkscape:window-x="-8"
     inkscape:window-y="-8"
     inkscape:window-maximized="1"
     inkscape:current-layer="svg6"
     inkscape:document-rotation="0" />
  <path
     style="stroke-width:1.30748"
     d="m 47.004445,7.2315945 h -8.000714 c -0.530448,0 -1.039293,0.202597 -1.414393,0.563241 -0.375101,0.360631 -0.585786,0.849758 -0.585786,1.359782 0,0.510012 0.210685,0.9991395 0.585786,1.3597835 0.3751,0.360631 0.883945,0.56324 1.414393,0.56324 h 8.000714 c 0.530448,0 1.039293,0.202597 1.414393,0.563241 0.3751,0.360631 0.585786,0.849758 0.585786,1.359782 v 18.69182 L 45.864343,28.904102 C 45.49551,28.57206 45.0096,28.386552 44.504222,28.384886 H 27.002659 c -0.530488,0 -1.03924,-0.202687 -1.41434,-0.563319 -0.375113,-0.36063 -0.585839,-0.849719 -0.585839,-1.359704 V 24.53884 c 0,-0.510115 -0.210739,-0.999204 -0.585839,-1.359834 -0.375113,-0.360631 -0.883866,-0.56319 -1.41434,-0.56319 -0.530487,0 -1.039239,0.20256 -1.414339,0.56319 -0.375114,0.36063 -0.585839,0.849719 -0.585839,1.359834 v 1.923023 c 0,1.529957 0.63219,2.997352 1.757517,4.079244 1.125314,1.082021 2.65157,1.689825 4.243019,1.689825 h 16.721493 l 6.000536,5.249851 c 0.368833,0.332043 0.854743,0.51755 1.360122,0.519217 0.274291,-0.0029 0.545648,-0.05513 0.800071,-0.153841 0.357765,-0.150124 0.662059,-0.397681 0.875278,-0.712033 0.213219,-0.314349 0.326163,-0.681904 0.324829,-1.057149 V 13.000663 C 53.085122,12.236544 52.927241,11.480014 52.62068,10.775021 52.314119,10.070028 51.865013,9.4305975 51.299229,8.8938815 50.733578,8.3571535 50.062585,7.9338185 49.325319,7.6484555 48.588053,7.3631045 47.799183,7.2214025 47.004445,7.2315945 Z M 28.162762,20.692793 h 4.840433 c 0.530447,0 1.039292,-0.202686 1.414393,-0.563317 0.3751,-0.360631 0.585785,-0.84972 0.585785,-1.359706 v -4.653714 c 0.0015,-0.25307 -0.04894,-0.50396 -0.148413,-0.738313 -0.09961,-0.234288 -0.246289,-0.447385 -0.431638,-0.627072 L 23.262325,2.0202025 C 22.887571,1.6620367 22.380619,1.461 21.852199,1.461 c -0.528421,0 -1.035373,0.2010367 -1.410126,0.5592025 l -4.860434,4.672946 C 15.209101,7.0534465 15,7.5408425 15,8.0488795 c 0,0.508037 0.209101,0.995421 0.581639,1.355731 L 26.742635,20.135117 c 0.186897,0.1782 0.408544,0.319221 0.652192,0.41486 0.243755,0.09577 0.504712,0.144227 0.767935,0.142816 z M 21.842198,6.0970115 31.003016,14.904494 v 1.923023 h -2.000179 l -9.18082,-8.7882525 z"
     fill="#000000"
     id="path2-0" />
</svg>
