<?xml version="1.0" encoding="UTF-8" standalone="no"?>
<svg
   xmlns:dc="http://purl.org/dc/elements/1.1/"
   xmlns:cc="http://creativecommons.org/ns#"
   xmlns:rdf="http://www.w3.org/1999/02/22-rdf-syntax-ns#"
   xmlns:svg="http://www.w3.org/2000/svg"
   xmlns="http://www.w3.org/2000/svg"
   xmlns:sodipodi="http://sodipodi.sourceforge.net/DTD/sodipodi-0.dtd"
   xmlns:inkscape="http://www.inkscape.org/namespaces/inkscape"
   inkscape:version="1.0 (4035a4fb49, 2020-05-01)"
   sodipodi:docname="new.svg"
   id="svg4"
   version="1.1"
   fill="none"
   viewBox="0 0 31 29"
   height="29"
   width="31">
  <metadata
     id="metadata10">
    <rdf:RDF>
      <cc:Work
         rdf:about="">
        <dc:format>image/svg+xml</dc:format>
        <dc:type
           rdf:resource="http://purl.org/dc/dcmitype/StillImage" />
      </cc:Work>
    </rdf:RDF>
  </metadata>
  <defs
     id="defs8" />
  <sodipodi:namedview
     inkscape:current-layer="svg4"
     inkscape:window-maximized="1"
     inkscape:window-y="-8"
     inkscape:window-x="-8"
     inkscape:cy="14.5"
     inkscape:cx="15.5"
     inkscape:zoom="29.655172"
     showgrid="false"
     id="namedview6"
     inkscape:window-height="1027"
     inkscape:window-width="1920"
     inkscape:pageshadow="2"
     inkscape:pageopacity="0"
     guidetolerance="10"
     gridtolerance="10"
     objecttolerance="10"
     borderopacity="1"
     bordercolor="#666666"
     pagecolor="#ffffff" />
  <path
     style="fill:#000000"
     id="path2"
     fill="#000000"
     d="M18.4167 15.2291H16.9583V13.7708C16.9583 13.384 16.8047 13.0131 16.5312 12.7396C16.2577 12.4661 15.8868 12.3125 15.5 12.3125C15.1132 12.3125 14.7423 12.4661 14.4688 12.7396C14.1953 13.0131 14.0417 13.384 14.0417 13.7708V15.2291H12.5833C12.1966 15.2291 11.8256 15.3828 11.5521 15.6563C11.2787 15.9297 11.125 16.3007 11.125 16.6875C11.125 17.0742 11.2787 17.4452 11.5521 17.7186C11.8256 17.9921 12.1966 18.1458 12.5833 18.1458H14.0417V19.6041C14.0417 19.9909 14.1953 20.3618 14.4688 20.6353C14.7423 20.9088 15.1132 21.0625 15.5 21.0625C15.8868 21.0625 16.2577 20.9088 16.5312 20.6353C16.8047 20.3618 16.9583 19.9909 16.9583 19.6041V18.1458H18.4167C18.8034 18.1458 19.1744 17.9921 19.4479 17.7186C19.7214 17.4452 19.875 17.0742 19.875 16.6875C19.875 16.3007 19.7214 15.9297 19.4479 15.6563C19.1744 15.3828 18.8034 15.2291 18.4167 15.2291ZM25.7083 5.02078H16.55L16.0833 3.56245C15.7808 2.70675 15.2196 1.96631 14.4776 1.44373C13.7355 0.921145 12.8493 0.642286 11.9417 0.645784H5.29167C4.13135 0.645784 3.01855 1.10672 2.19808 1.92719C1.37761 2.74766 0.916672 3.86046 0.916672 5.02078V23.9791C0.916672 25.1394 1.37761 26.2522 2.19808 27.0727C3.01855 27.8932 4.13135 28.3541 5.29167 28.3541H25.7083C26.8687 28.3541 27.9815 27.8932 28.8019 27.0727C29.6224 26.2522 30.0833 25.1394 30.0833 23.9791V9.39579C30.0833 8.23546 29.6224 7.12266 28.8019 6.30219C27.9815 5.48172 26.8687 5.02078 25.7083 5.02078ZM27.1667 23.9791C27.1667 24.3659 27.013 24.7368 26.7395 25.0103C26.466 25.2838 26.0951 25.4375 25.7083 25.4375H5.29167C4.9049 25.4375 4.53397 25.2838 4.26047 25.0103C3.98698 24.7368 3.83334 24.3659 3.83334 23.9791V5.02078C3.83334 4.63401 3.98698 4.26308 4.26047 3.98959C4.53397 3.7161 4.9049 3.56245 5.29167 3.56245H11.9417C12.2474 3.56166 12.5456 3.65698 12.7943 3.83493C13.0429 4.01288 13.2293 4.26446 13.3271 4.55412L14.1146 6.94579C14.2124 7.23544 14.3988 7.48702 14.6474 7.66497C14.896 7.84292 15.1943 7.93824 15.5 7.93745H25.7083C26.0951 7.93745 26.466 8.0911 26.7395 8.36459C27.013 8.63808 27.1667 9.00901 27.1667 9.39579V23.9791Z" />
</svg>
