<?xml version="1.0" encoding="UTF-8" standalone="no"?>
<svg
   xmlns:dc="http://purl.org/dc/elements/1.1/"
   xmlns:cc="http://creativecommons.org/ns#"
   xmlns:rdf="http://www.w3.org/1999/02/22-rdf-syntax-ns#"
   xmlns:svg="http://www.w3.org/2000/svg"
   xmlns="http://www.w3.org/2000/svg"
   xmlns:sodipodi="http://sodipodi.sourceforge.net/DTD/sodipodi-0.dtd"
   xmlns:inkscape="http://www.inkscape.org/namespaces/inkscape"
   width="38"
   height="38"
   viewBox="0 0 38 38"
   version="1.1"
   id="svg8"
   sodipodi:docname="api.svg"
   inkscape:version="0.92.4 (5da689c313, 2019-01-14)">
  <metadata
     id="metadata14">
    <rdf:RDF>
      <cc:Work
         rdf:about="">
        <dc:format>image/svg+xml</dc:format>
        <dc:type
           rdf:resource="http://purl.org/dc/dcmitype/StillImage" />
      </cc:Work>
    </rdf:RDF>
  </metadata>
  <defs
     id="defs12" />
  <sodipodi:namedview
     pagecolor="#ffffff"
     bordercolor="#666666"
     borderopacity="1"
     objecttolerance="10"
     gridtolerance="10"
     guidetolerance="10"
     inkscape:pageopacity="0"
     inkscape:pageshadow="2"
     inkscape:window-width="1920"
     inkscape:window-height="1027"
     id="namedview10"
     showgrid="false"
     inkscape:zoom="6.2105263"
     inkscape:cx="19"
     inkscape:cy="19"
     inkscape:window-x="-8"
     inkscape:window-y="-8"
     inkscape:window-maximized="1"
     inkscape:current-layer="Group_18" />
  <g
     id="Group_19"
     data-name="Group 19"
     transform="translate(-1629 -670)">
    <g
       id="Group_18"
       data-name="Group 18">
      <g
         id="cloud_queue-24px"
         transform="translate(1629 670)">
        <path
           id="Path_266"
           data-name="Path 266"
           d="M0,0H38V38H0Z"
           fill="none" />
        <path
           id="Path_267"
           data-name="Path 267"
           d="M30.638,13.563A11.863,11.863,0,0,0,8.471,10.4,9.5,9.5,0,0,0,9.5,29.333H30.083a7.894,7.894,0,0,0,.554-15.77Zm-.554,12.6H9.5A6.333,6.333,0,1,1,9.5,13.5h1.124a8.707,8.707,0,0,1,17.084,2.375v.792h2.375a4.75,4.75,0,0,1,0,9.5Z"
           transform="translate(0 2.333)"
           fill="#616161"
           style="fill:#000000" />
      </g>
      <path
         id="Polygon_8"
         data-name="Polygon 8"
         d="M5.051,1.383a1,1,0,0,1,1.7,0l4.112,6.678a1,1,0,0,1-.852,1.524H1.79A1,1,0,0,1,.939,8.061Z"
         transform="translate(1653.961 685.188) rotate(90)"
         fill="#616161"
         style="fill:#000000" />
    </g>
  </g>
</svg>
