<?xml version="1.0" encoding="UTF-8" standalone="no"?>
<svg
   xmlns:dc="http://purl.org/dc/elements/1.1/"
   xmlns:cc="http://creativecommons.org/ns#"
   xmlns:rdf="http://www.w3.org/1999/02/22-rdf-syntax-ns#"
   xmlns:svg="http://www.w3.org/2000/svg"
   xmlns="http://www.w3.org/2000/svg"
   xmlns:sodipodi="http://sodipodi.sourceforge.net/DTD/sodipodi-0.dtd"
   xmlns:inkscape="http://www.inkscape.org/namespaces/inkscape"
   width="60"
   height="40"
   viewBox="0 0 60 40"
   version="1.1"
   id="svg4"
   sodipodi:docname="build.svg"
   inkscape:version="0.92.4 (5da689c313, 2019-01-14)">
  <metadata
     id="metadata10">
    <rdf:RDF>
      <cc:Work
         rdf:about="">
        <dc:format>image/svg+xml</dc:format>
        <dc:type
           rdf:resource="http://purl.org/dc/dcmitype/StillImage" />
        <dc:title></dc:title>
      </cc:Work>
    </rdf:RDF>
  </metadata>
  <defs
     id="defs8" />
  <sodipodi:namedview
     pagecolor="#ffffff"
     bordercolor="#666666"
     borderopacity="1"
     objecttolerance="10"
     gridtolerance="10"
     guidetolerance="10"
     inkscape:pageopacity="0"
     inkscape:pageshadow="2"
     inkscape:window-width="1920"
     inkscape:window-height="1027"
     id="namedview6"
     showgrid="false"
     inkscape:zoom="6.2105263"
     inkscape:cx="0.019939531"
     inkscape:cy="16.076954"
     inkscape:window-x="-8"
     inkscape:window-y="-8"
     inkscape:window-maximized="1"
     inkscape:current-layer="tools-cross-settings-symbol-for-interface"
     fit-margin-left="0" />
  <g
     id="tools-cross-settings-symbol-for-interface"
     style="opacity:100.00;fill:#000000"
     transform="translate(0,2)">
    <path
       id="Path_268"
       data-name="Path 268"
       d="m 49.577795,31.00013 -12.245,-12.245 a 3.43,3.43 0 0 0 -0.364,-0.313 l 2.169,-2.284 a 4.381,4.381 0 0 0 0.312,-0.35 8.071,8.071 0 0 0 10.906,-8.2450007 0.7,0.7 0 0 0 -1.189,-0.433 l -3.925,3.9239997 -3.974,-1 -1.127,-4.0999997 3.926,-3.924 a 0.7,0.7 0 0 0 -0.433,-1.18800001 8.071,8.071 0 0 0 -8.247,10.89999971 c -0.118,0.1 -0.235,0.206 -0.351,0.319 l -3.192,3.066001 -5.862,-5.8620007 a 2.156,2.156 0 0 0 -0.232,-0.2 c 0.069,-0.121 0.136,-0.245 0.2,-0.374 1.238,0.238 3.5,-2.173 5.424,-4.094 l -5.6,-5.59700003 c -2.507,2.50000003 -4.333,4.18500003 -4.096,5.42300003 a 5.47,5.47 0 0 0 -1.445,0.985 l -0.789,0.792 a 3.33,3.33 0 0 0 -0.931,1.815 c -0.077,0.087 -0.154,0.179 -0.232,0.278 l -0.294,0.369 c -0.008,0.009 -0.034,0.045 -0.041,0.055 l -0.266,0.373 c -0.167,0.222 -0.312,0.464 -0.453,0.7 q -0.078,0.13 -0.159,0.2599997 c -0.009,0.015 -0.017,0.03 -0.025,0.044 l -0.118,0.223 c -0.143,0.268 -0.292,0.546 -0.419,0.852 l -0.021,0.049 a 9.261,9.261 0 0 0 -0.418,1.109 l -0.052,0.169 c -0.043,0.139 -0.087,0.278 -0.127,0.443 l -0.109,0.539 a 6.175,6.175 0 0 0 -0.132,0.964 l -0.016,0.193001 a 4.8,4.8 0 0 0 -0.018,0.847 c 0,0.085 0.007,0.169 0.01,0.281 0,0.047 0,0.093 0,0.138 a 2.735,2.735 0 0 0 0.028,0.378 l 0.068,0.437 c 0.015,0.085 0.027,0.167 0.039,0.245 a 3.7,3.7 0 0 0 0.106,0.536 l 0.286,0.994 a 0.67,0.67 0 0 0 1.317,-0.091 l 0.149,-1.011 a 2.758,2.758 0 0 1 0.081,-0.322 c 0.025,-0.086 0.05,-0.174 0.069,-0.249 l 0.106,-0.377 a 1.052,1.052 0 0 1 0.06,-0.152 c 0.021,-0.047 0.042,-0.1 0.061,-0.144 0.035,-0.08 0.069,-0.16 0.1,-0.243 a 2.793,2.793 0 0 1 0.221,-0.462 c 0.041,-0.069 0.079,-0.137 0.118,-0.207 a 3.435,3.435 0 0 1 0.3,-0.478 l 0.021,-0.027 0.249,-0.344001 c 0.051,-0.065 0.108,-0.126 0.164,-0.187 0.04,-0.043 0.079,-0.087 0.129,-0.144 a 4.967,4.967 0 0 1 0.487,-0.483 l 0.089,-0.08 c 0.124,-0.115 0.266,-0.223 0.417,-0.337 l 0.181,-0.137 c 0.076,-0.049 0.149,-0.1 0.222,-0.147 a 3.9,3.9 0 0 1 0.389,-0.242 l 0.3,-0.168 0.3,-0.147 c 0.1,-0.054 0.207,-0.1 0.3,-0.134 l 0.163,-0.068 c 0.052,-0.018 0.1,-0.038 0.151,-0.055 a 1.973,1.973 0 0 1 0.194,-0.065 l 0.081,-0.018 a 2.19,2.19 0 0 0 0.314,0.4 l 5.8,5.800001 -12.386,11.891 -0.014,0.014 a 3.668,3.668 0 0 0 -0.251,5.337 c 1.541,1.54 3.653,1.145 5.193,-0.394 l 0.02,-0.02 10.922,-11.5 c 0.064,0.075 0.127,0.151 0.2,0.223 l 12.241,12.248 a 3.5146743,3.5146743 0 0 0 4.97,-4.971 z m -29.95,2.75 a 1.453,1.453 0 1 1 0,-2.054 1.452,1.452 0 0 1 0,2.054 z"
       style="fill:#000000;fill-opacity:1"
       inkscape:connector-curvature="0" />
  </g>
</svg>
