<?xml version="1.0" encoding="UTF-8" standalone="no"?>
<svg
   xmlns:dc="http://purl.org/dc/elements/1.1/"
   xmlns:cc="http://creativecommons.org/ns#"
   xmlns:rdf="http://www.w3.org/1999/02/22-rdf-syntax-ns#"
   xmlns:svg="http://www.w3.org/2000/svg"
   xmlns="http://www.w3.org/2000/svg"
   xmlns:sodipodi="http://sodipodi.sourceforge.net/DTD/sodipodi-0.dtd"
   xmlns:inkscape="http://www.inkscape.org/namespaces/inkscape"
   width="60"
   height="40"
   viewBox="0 0 60 40"
   version="1.1"
   id="svg6"
   sodipodi:docname="results.svg"
   inkscape:version="0.92.4 (5da689c313, 2019-01-14)">
  <metadata
     id="metadata12">
    <rdf:RDF>
      <cc:Work
         rdf:about="">
        <dc:format>image/svg+xml</dc:format>
        <dc:type
           rdf:resource="http://purl.org/dc/dcmitype/StillImage" />
        <dc:title></dc:title>
      </cc:Work>
    </rdf:RDF>
  </metadata>
  <defs
     id="defs10" />
  <sodipodi:namedview
     pagecolor="#ffffff"
     bordercolor="#666666"
     borderopacity="1"
     objecttolerance="10"
     gridtolerance="10"
     guidetolerance="10"
     inkscape:pageopacity="0"
     inkscape:pageshadow="2"
     inkscape:window-width="1920"
     inkscape:window-height="1027"
     id="namedview8"
     showgrid="false"
     inkscape:zoom="6.7280555"
     inkscape:cx="-10.280377"
     inkscape:cy="17.5385"
     inkscape:window-x="-8"
     inkscape:window-y="-8"
     inkscape:window-maximized="1"
     inkscape:current-layer="svg6" />
  <g
     id="download-to-storage-drive"
     transform="translate(15.000365,-15.847347)"
     style="opacity:1;fill:#000000">
    <g
       id="Group_8"
       data-name="Group 8"
       transform="translate(0,18.27)"
       style="fill:#000000">
      <path
         id="Path_269"
         data-name="Path 269"
         d="m 37.361,311.272 a 2.114,2.114 0 0 0 -1.553,-0.639 h -10.6 l -3.106,3.106 a 4.411,4.411 0 0 1 -6.211,0 l -3.083,-3.106 H 2.192 A 2.116,2.116 0 0 0 0.639,311.272 2.114,2.114 0 0 0 0,312.826 v 7.307 a 2.114,2.114 0 0 0 0.639,1.553 2.114,2.114 0 0 0 1.553,0.639 H 35.808 A 2.183,2.183 0 0 0 38,320.133 v -7.307 a 2.113,2.113 0 0 0 -0.639,-1.554 z m -8.563,7.7 a 1.434,1.434 0 1 1 0.434,-1.027 1.406,1.406 0 0 1 -0.432,1.023 z m 5.846,0 a 1.433,1.433 0 1 1 0.434,-1.027 1.4,1.4 0 0 1 -0.435,1.023 z"
         transform="translate(0,-287.248)"
         style="fill:#000000"
         inkscape:connector-curvature="0" />
      <path
         id="Path_270"
         data-name="Path 270"
         d="m 101.755,42.683 a 1.434,1.434 0 0 0 2.055,0 l 10.231,-10.231 a 1.318,1.318 0 0 0 0.32,-1.6 1.365,1.365 0 0 0 -1.347,-0.891 h -5.846 V 19.732 A 1.482,1.482 0 0 0 105.707,18.27 H 99.859 A 1.482,1.482 0 0 0 98.4,19.732 v 10.23 h -5.848 a 1.365,1.365 0 0 0 -1.347,0.891 1.318,1.318 0 0 0 0.32,1.6 z"
         transform="translate(-83.783,-18.27)"
         style="fill:#000000"
         inkscape:connector-curvature="0" />
    </g>
  </g>
</svg>
