<?xml version="1.0" encoding="UTF-8" standalone="no"?>
<svg
   xmlns:dc="http://purl.org/dc/elements/1.1/"
   xmlns:cc="http://creativecommons.org/ns#"
   xmlns:rdf="http://www.w3.org/1999/02/22-rdf-syntax-ns#"
   xmlns:svg="http://www.w3.org/2000/svg"
   xmlns="http://www.w3.org/2000/svg"
   xmlns:sodipodi="http://sodipodi.sourceforge.net/DTD/sodipodi-0.dtd"
   xmlns:inkscape="http://www.inkscape.org/namespaces/inkscape"
   width="60"
   height="40"
   viewBox="0 0 60 40"
   version="1.1"
   id="svg3760"
   sodipodi:docname="results.svg"
   inkscape:version="0.92.4 (5da689c313, 2019-01-14)"
   style="fill:none">
  <metadata
     id="metadata3766">
    <rdf:RDF>
      <cc:Work
         rdf:about="">
        <dc:format>image/svg+xml</dc:format>
        <dc:type
           rdf:resource="http://purl.org/dc/dcmitype/StillImage" />
        <dc:title></dc:title>
      </cc:Work>
    </rdf:RDF>
  </metadata>
  <defs
     id="defs3764" />
  <sodipodi:namedview
     pagecolor="#ffffff"
     bordercolor="#666666"
     borderopacity="1"
     objecttolerance="10"
     gridtolerance="10"
     guidetolerance="10"
     inkscape:pageopacity="0"
     inkscape:pageshadow="2"
     inkscape:window-width="1920"
     inkscape:window-height="1001"
     id="namedview3762"
     showgrid="false"
     inkscape:zoom="9.5223713"
     inkscape:cx="-1.847592"
     inkscape:cy="-0.14326417"
     inkscape:window-x="-9"
     inkscape:window-y="-9"
     inkscape:window-maximized="1"
     inkscape:current-layer="svg3760" />
  <path
     d="m 34.5695,23.345912 -0.505046,0.541197 v -4.672343 c 0,-0.478419 -0.183442,-0.937235 -0.510037,-1.275542 -0.326597,-0.33831 -0.769644,-0.528451 -1.231499,-0.528451 -0.461856,0 -0.904904,0.190141 -1.231499,0.528451 -0.326597,0.338307 -0.510038,0.797123 -0.510038,1.275542 v 4.672343 l -0.505045,-0.541197 c -0.32799,-0.339632 -0.772663,-0.530495 -1.236492,-0.530495 -0.463828,0 -0.908502,0.190863 -1.23649,0.530495 -0.32799,0.339751 -0.512128,0.800491 -0.512128,1.280834 0,0.480464 0.184138,0.941204 0.512128,1.280836 l 3.483072,3.607986 c 0.165678,0.164284 0.360962,0.292969 0.574708,0.378839 0.20852,0.09549 0.433874,0.1448 0.661784,0.1448 0.227908,0 0.453264,-0.04931 0.661784,-0.1448 0.213744,-0.08587 0.409028,-0.214555 0.574706,-0.378839 l 3.483073,-3.607986 c 0.327989,-0.339632 0.512128,-0.800372 0.512128,-1.280836 0,-0.480343 -0.184139,-0.941083 -0.512128,-1.280834 -0.327989,-0.339632 -0.772662,-0.530495 -1.236491,-0.530495 -0.46383,0 -0.908502,0.190863 -1.23649,0.530495 z M 44.513673,8.3908424 H 33.576824 L 33.019532,6.5868491 C 32.658222,5.528326 31.988078,4.6123906 31.101984,3.9659355 30.215774,3.3194926 29.157385,2.9745391 28.073568,2.9788662 h -7.941406 c -1.385649,0 -2.714555,0.5701905 -3.694357,1.5851292 -0.979804,1.0149507 -1.530253,2.3915057 -1.530253,3.826847 V 31.84272 c 0,1.435377 0.550449,2.811944 1.530253,3.826871 0.979802,1.014926 2.308708,1.585108 3.694357,1.585108 h 24.381511 c 1.385682,0 2.714591,-0.570182 3.694379,-1.585108 0.979788,-1.014927 1.53023,-2.391494 1.53023,-3.826871 V 13.802822 c 0,-1.435341 -0.550442,-2.811896 -1.53023,-3.8268462 C 47.228264,8.961037 45.899355,8.3908424 44.513673,8.3908424 Z M 46.25521,31.84272 c 0,0.478539 -0.183442,0.937354 -0.510038,1.275664 -0.326598,0.338307 -0.769644,0.528328 -1.231499,0.528328 H 20.132162 c -0.461879,0 -0.904856,-0.190021 -1.231452,-0.528328 -0.326597,-0.33831 -0.510085,-0.797125 -0.510085,-1.275664 V 8.3908424 c 0,-0.4784431 0.183488,-0.9372948 0.510085,-1.2756157 0.326596,-0.3383088 0.769573,-0.5283776 1.231452,-0.5283776 h 7.941406 c 0.365143,-9.741e-4 0.721229,0.1169348 1.018102,0.3370701 0.29699,0.2201233 0.519558,0.5313363 0.636358,0.8896455 l 0.94043,2.9585493 c 0.116798,0.35832 0.339367,0.669535 0.636358,0.889657 0.296873,0.220135 0.652959,0.338045 1.018102,0.337058 h 12.190755 c 0.461855,0 0.904901,0.190069 1.231499,0.528378 0.326596,0.338322 0.510038,0.797172 0.510038,1.275615 z"
     id="path3758"
     style="fill:#000000;fill-opacity:1;stroke-width:1.18165982"
     inkscape:connector-curvature="0" />
</svg>
