<?xml version="1.0" encoding="UTF-8" standalone="no"?>
<svg
   xmlns:dc="http://purl.org/dc/elements/1.1/"
   xmlns:cc="http://creativecommons.org/ns#"
   xmlns:rdf="http://www.w3.org/1999/02/22-rdf-syntax-ns#"
   xmlns:svg="http://www.w3.org/2000/svg"
   xmlns="http://www.w3.org/2000/svg"
   xmlns:sodipodi="http://sodipodi.sourceforge.net/DTD/sodipodi-0.dtd"
   xmlns:inkscape="http://www.inkscape.org/namespaces/inkscape"
   width="38"
   height="35.077"
   viewBox="0 0 38 35.077"
   version="1.1"
   id="svg6"
   sodipodi:docname="results.svg"
   inkscape:version="0.92.4 (5da689c313, 2019-01-14)">
  <metadata
     id="metadata12">
    <rdf:RDF>
      <cc:Work
         rdf:about="">
        <dc:format>image/svg+xml</dc:format>
        <dc:type
           rdf:resource="http://purl.org/dc/dcmitype/StillImage" />
      </cc:Work>
    </rdf:RDF>
  </metadata>
  <defs
     id="defs10" />
  <sodipodi:namedview
     pagecolor="#ffffff"
     bordercolor="#666666"
     borderopacity="1"
     objecttolerance="10"
     gridtolerance="10"
     guidetolerance="10"
     inkscape:pageopacity="0"
     inkscape:pageshadow="2"
     inkscape:window-width="1920"
     inkscape:window-height="1027"
     id="namedview8"
     showgrid="false"
     inkscape:zoom="6.7280555"
     inkscape:cx="19"
     inkscape:cy="17.5385"
     inkscape:window-x="-8"
     inkscape:window-y="-8"
     inkscape:window-maximized="1"
     inkscape:current-layer="svg6" />
  <g
     id="download-to-storage-drive"
     transform="translate(0 -18.27)"
     opacity="0.44"
     style="opacity:1;fill:#000000">
    <g
       id="Group_8"
       data-name="Group 8"
       transform="translate(0 18.27)"
       style="fill:#000000">
      <path
         id="Path_269"
         data-name="Path 269"
         d="M37.361,311.272a2.114,2.114,0,0,0-1.553-.639h-10.6l-3.106,3.106a4.411,4.411,0,0,1-6.211,0l-3.083-3.106H2.192a2.116,2.116,0,0,0-1.553.639A2.114,2.114,0,0,0,0,312.826v7.307a2.114,2.114,0,0,0,.639,1.553,2.114,2.114,0,0,0,1.553.639H35.808A2.183,2.183,0,0,0,38,320.133v-7.307A2.113,2.113,0,0,0,37.361,311.272Zm-8.563,7.7a1.434,1.434,0,1,1,.434-1.027A1.406,1.406,0,0,1,28.8,318.968Zm5.846,0a1.433,1.433,0,1,1,.434-1.027A1.4,1.4,0,0,1,34.643,318.968Z"
         transform="translate(0 -287.248)"
         fill="#616161"
         style="fill:#000000" />
      <path
         id="Path_270"
         data-name="Path 270"
         d="M101.755,42.683a1.434,1.434,0,0,0,2.055,0l10.231-10.231a1.318,1.318,0,0,0,.32-1.6,1.365,1.365,0,0,0-1.347-.891h-5.846V19.732a1.482,1.482,0,0,0-1.461-1.462H99.859A1.482,1.482,0,0,0,98.4,19.732V29.962H92.552a1.365,1.365,0,0,0-1.347.891,1.318,1.318,0,0,0,.32,1.6Z"
         transform="translate(-83.783 -18.27)"
         fill="#616161"
         style="fill:#000000" />
    </g>
  </g>
</svg>
