<?xml version="1.0" encoding="UTF-8" standalone="no"?>
<!-- Created with Inkscape (http://www.inkscape.org/) -->

<svg
   xmlns:dc="http://purl.org/dc/elements/1.1/"
   xmlns:cc="http://creativecommons.org/ns#"
   xmlns:rdf="http://www.w3.org/1999/02/22-rdf-syntax-ns#"
   xmlns:svg="http://www.w3.org/2000/svg"
   xmlns="http://www.w3.org/2000/svg"
   xmlns:sodipodi="http://sodipodi.sourceforge.net/DTD/sodipodi-0.dtd"
   xmlns:inkscape="http://www.inkscape.org/namespaces/inkscape"
   width="188.05554mm"
   height="19.943264mm"
   viewBox="0 0 188.05554 19.943265"
   version="1.1"
   id="svg3767"
   inkscape:version="0.92.4 (5da689c313, 2019-01-14)"
   sodipodi:docname="sim_wizard_p3.svg">
  <defs
     id="defs3761" />
  <sodipodi:namedview
     id="base"
     pagecolor="#ffffff"
     bordercolor="#666666"
     borderopacity="1.0"
     inkscape:pageopacity="0.0"
     inkscape:pageshadow="2"
     inkscape:zoom="1.4"
     inkscape:cx="143.68776"
     inkscape:cy="83.121788"
     inkscape:document-units="mm"
     inkscape:current-layer="layer1"
     showgrid="false"
     inkscape:window-width="1920"
     inkscape:window-height="1027"
     inkscape:window-x="-8"
     inkscape:window-y="-8"
     inkscape:window-maximized="1"
     fit-margin-top="0"
     fit-margin-left="0"
     fit-margin-right="0"
     fit-margin-bottom="0" />
  <metadata
     id="metadata3764">
    <rdf:RDF>
      <cc:Work
         rdf:about="">
        <dc:format>image/svg+xml</dc:format>
        <dc:type
           rdf:resource="http://purl.org/dc/dcmitype/StillImage" />
        <dc:title />
      </cc:Work>
    </rdf:RDF>
  </metadata>
  <g
     inkscape:label="Layer 1"
     inkscape:groupmode="layer"
     id="layer1"
     transform="translate(-11.63697,-6.4073954)">
    <rect
       style="fill:#6cce86;fill-opacity:0.91764706;stroke:none;stroke-width:0.09379058;stroke-miterlimit:4;stroke-dasharray:none;stroke-opacity:1"
       id="rect4593"
       width="21.683271"
       height="2.5694051"
       x="26.298643"
       y="17.62636" />
    <rect
       style="fill:#6cce86;fill-opacity:0.91764706;stroke:none;stroke-width:0.09379058;stroke-miterlimit:4;stroke-dasharray:none;stroke-opacity:1"
       id="rect4593-2"
       width="21.683273"
       height="2.5694051"
       x="47.981911"
       y="17.62636" />
    <circle
       style="fill:#6cce86;fill-opacity:0.91764706;stroke-width:0.14753447"
       id="path3786"
       cx="19.125845"
       cy="18.861784"
       r="7.4888754" />
    <circle
       style="fill:#6cce86;fill-opacity:0.91764706;stroke-width:0.14753447"
       id="path3786-7"
       cx="76.216629"
       cy="18.662146"
       r="7.4888754" />
    <rect
       style="fill:#6cce86;fill-opacity:0.91764706;stroke:none;stroke-width:0.09379058;stroke-miterlimit:4;stroke-dasharray:none;stroke-opacity:1"
       id="rect4593-2-4"
       width="21.683273"
       height="2.5694051"
       x="83.32756"
       y="17.626358" />
    <rect
       style="fill:#6cce86;fill-opacity:0.91764706;stroke:none;stroke-width:0.09379058;stroke-miterlimit:4;stroke-dasharray:none;stroke-opacity:1"
       id="rect4593-2-0"
       width="21.683273"
       height="2.5694051"
       x="105.01083"
       y="17.626358" />
    <rect
       style="fill:#6cce86;fill-opacity:0.91764706;stroke:none;stroke-width:0.09379058;stroke-miterlimit:4;stroke-dasharray:none;stroke-opacity:1"
       id="rect4593-9"
       width="21.683271"
       height="2.5694051"
       x="140.92566"
       y="17.626358" />
    <rect
       style="fill:#ffffff;fill-opacity:0.91764706;stroke:none;stroke-width:0.09379058;stroke-miterlimit:4;stroke-dasharray:none;stroke-opacity:1"
       id="rect4593-2-3"
       width="21.683273"
       height="2.5694051"
       x="162.60893"
       y="17.626358" />
    <circle
       style="fill:#6cce86;fill-opacity:0.91764706;stroke-width:0.14753447"
       id="path3786-9"
       cx="133.75293"
       cy="18.86178"
       r="7.4888754" />
    <path
       inkscape:connector-curvature="0"
       class="a"
       d="m 136.67533,15.81837 a 2.8716552,2.8716552 0 0 0 -5.73002,0 h -0.01 a 2.3597285,2.3597285 0 0 0 0,4.719456 h 5.72051 a 2.3597283,2.3597283 0 0 0 0.019,-4.719078 z m -0.019,4.174083 h -5.72053 a 1.814737,1.814737 0 0 1 0,-3.629473 h 0.22803 a 0.26603476,0.26603476 0 0 0 0.20904,-0.102618 0.27211556,0.27211556 0 0 0 0.10187,-0.211688 2.3357855,2.3357855 0 1 1 4.67157,0 c 0,0.0072 0,0.01408 0.002,0.0209 0.002,0.0069 -0.002,0.01364 -0.002,0.0209 a 0.2709754,0.2709754 0 0 0 0.26945,0.272496 h 0.24058 a 1.814737,1.814737 0 0 1 0,3.629473 z m -5.46474,1.107846 a 2.610561,2.610561 0 0 0 -0.68751,0.53815 0.42831596,0.42831596 0 0 0 0.17026,0.576536 0.41805464,0.41805464 0 0 0 0.57008,-0.172162 2.6550269,2.6550269 0 0 0 0.068,-0.876015 0.08171069,0.08171069 0 0 0 -0.12124,-0.06614 z m -1.14015,1.570745 a 2.5991596,2.5991596 0 0 0 -0.68751,0.53815 0.4264157,0.4264157 0 0 0 -0.033,0.323802 0.41805464,0.41805464 0 0 0 0.7734,0.08019 2.6603476,2.6603476 0 0 0 0.068,-0.876396 0.08209073,0.08209073 0 0 0 -0.12123,-0.06613 z m 6.27918,-1.60343 a 2.6117013,2.6117013 0 0 0 -0.68751,0.538151 0.42831596,0.42831596 0 0 0 0.17026,0.576536 0.41805464,0.41805464 0 0 0 0.57008,-0.172163 2.6603476,2.6603476 0 0 0 0.068,-0.876394 0.08209073,0.08209073 0 0 0 -0.12123,-0.06613 z m -1.14014,1.570746 a 2.6010598,2.6010598 0 0 0 -0.68865,0.53663 0.428696,0.428696 0 0 0 0.17025,0.576535 0.41805464,0.41805464 0 0 0 0.57008,-0.172543 2.6603476,2.6603476 0 0 0 0.068,-0.875254 0.08209073,0.08209073 0 0 0 -0.12122,-0.06614 z m -1.4575,-1.571125 a 2.6098009,2.6098009 0 0 0 -0.68751,0.538149 0.4264157,0.4264157 0 0 0 -0.0327,0.323803 0.41805464,0.41805464 0 0 0 0.7734,0.08019 2.6603476,2.6603476 0 0 0 0.068,-0.876394 0.08209073,0.08209073 0 0 0 -0.12123,-0.06613 z m -1.14015,1.570745 a 2.5976395,2.5976395 0 0 0 -0.68788,0.53701 0.428696,0.428696 0 0 0 0.17025,0.576535 0.41805464,0.41805464 0 0 0 0.57007,-0.172543 2.6519865,2.6519865 0 0 0 0.068,-0.876013 0.08209073,0.08209073 0 0 0 -0.12085,-0.06614 z"
       id="path3753-4"
       style="stroke-width:0.38004962" />
    <circle
       style="fill:#ffffff;fill-opacity:0.91764706;stroke-width:0.14753447"
       id="path3786-7-0"
       cx="190.84352"
       cy="18.662144"
       r="7.4888754" />
    <path
       inkscape:connector-curvature="0"
       class="a"
       d="m 76.252291,13.071115 a 5.8849736,5.8849736 0 1 0 5.884975,5.884973 5.8849736,5.8849736 0 0 0 -5.884975,-5.884973 z m -0.02637,11.102206 A 5.2131475,5.2131475 0 1 1 81.439808,18.960172 5.2135188,5.2135188 0 0 1 76.2263,24.173321 Z M 75.986523,13.9315 h 0.418683 v 1.421595 h -0.418683 z m 0.473608,3.462314 v -1.470222 h -0.571599 v 1.477645 a 1.6535829,1.6535829 0 0 1 0.571599,-0.0075 z m 0.519648,3.067017 1.360721,1.360726 0.51965,-0.519645 -1.329173,-1.326948 a 1.6513558,1.6513558 0 0 1 -0.551198,0.486608 z m -0.992892,2.053337 h 0.418687 v 1.421601 h -0.419049 z m 3.825698,-3.726962 h 1.421607 v 0.418684 h -1.421607 z m -8.560773,0 h 1.42161 v 0.418684 h -1.421229 z m 6.279167,1.187758 -1.070846,-1.070841 v -1.509936 a 1.6535829,1.6535829 0 0 0 -0.571599,0.0075 v 1.970195 h 0.02594 l -0.01125,0.01193 1.076404,1.076408 a 1.6513558,1.6513558 0 0 0 0.551944,-0.485129 z m 0,0 -1.070846,-1.070841 v -1.509936 a 1.6535829,1.6535829 0 0 0 -0.571599,0.0075 v 1.970195 h 0.02594 l -0.01125,0.01193 1.076404,1.076408 a 1.6513558,1.6513558 0 0 0 0.551944,-0.485129 z"
       id="path4839"
       style="stroke-width:0.37117457" />
    <g
       transform="matrix(0.45810634,0,0,0.45810634,13.635383,13.236137)"
       style="fill:none;stroke:#000000;stroke-width:1.33160758;stroke-linecap:round;stroke-linejoin:round;stroke-miterlimit:4;stroke-dasharray:none;stroke-opacity:1"
       id="g4886">
      <ellipse
         cx="12"
         cy="5"
         rx="9"
         ry="3"
         id="ellipse4880"
         style="stroke:#000000;stroke-width:1.33160758;stroke-miterlimit:4;stroke-dasharray:none;stroke-opacity:1" />
      <path
         inkscape:connector-curvature="0"
         d="m 21,12 c 0,1.66 -4,3 -9,3 -5,0 -9,-1.34 -9,-3"
         id="path4882"
         style="stroke:#000000;stroke-width:1.33160758;stroke-miterlimit:4;stroke-dasharray:none;stroke-opacity:1" />
      <path
         inkscape:connector-curvature="0"
         d="m 3,5 v 14 c 0,1.66 4,3 9,3 5,0 9,-1.34 9,-3 V 5"
         id="path4884"
         style="stroke:#000000;stroke-width:1.33160758;stroke-miterlimit:4;stroke-dasharray:none;stroke-opacity:1" />
    </g>
    <path
       inkscape:connector-curvature="0"
       d="m 189.65423,20.997356 -2.08701,-2.086992 -0.69564,0.695664 2.78265,2.782659 5.96283,-5.962839 -0.69564,-0.695664 z"
       id="path4936"
       style="stroke-width:0.49690318" />
    <text
       xml:space="preserve"
       style="font-style:normal;font-variant:normal;font-weight:bold;font-stretch:normal;font-size:4.23333311px;line-height:1.25;font-family:'Segoe UI';-inkscape-font-specification:'Segoe UI, Bold';font-variant-ligatures:normal;font-variant-caps:normal;font-variant-numeric:normal;font-feature-settings:normal;text-align:start;letter-spacing:0px;word-spacing:0px;writing-mode:lr-tb;text-anchor:start;fill:#000000;fill-opacity:1;stroke:none;stroke-width:0.26458332"
       x="12.43072"
       y="9.4362249"
       id="text831"><tspan
         sodipodi:role="line"
         id="tspan829"
         x="12.43072"
         y="9.4362249"
         style="font-style:normal;font-variant:normal;font-weight:bold;font-stretch:normal;font-size:4.23333311px;font-family:'Segoe UI';-inkscape-font-specification:'Segoe UI, Bold';font-variant-ligatures:normal;font-variant-caps:normal;font-variant-numeric:normal;font-feature-settings:normal;text-align:start;writing-mode:lr-tb;text-anchor:start;stroke-width:0.26458332">Name</tspan></text>
    <text
       xml:space="preserve"
       style="font-style:normal;font-variant:normal;font-weight:bold;font-stretch:normal;font-size:4.23333311px;line-height:1.25;font-family:'Segoe UI';-inkscape-font-specification:'Segoe UI, Bold';font-variant-ligatures:normal;font-variant-caps:normal;font-variant-numeric:normal;font-feature-settings:normal;text-align:start;letter-spacing:0px;word-spacing:0px;writing-mode:lr-tb;text-anchor:start;fill:#000000;fill-opacity:1;stroke:none;stroke-width:0.26458332"
       x="67.653038"
       y="9.5307188"
       id="text835"><tspan
         sodipodi:role="line"
         id="tspan833"
         x="67.653038"
         y="9.5307188"
         style="font-style:normal;font-variant:normal;font-weight:bold;font-stretch:normal;font-size:4.23333311px;font-family:'Segoe UI';-inkscape-font-specification:'Segoe UI, Bold';font-variant-ligatures:normal;font-variant-caps:normal;font-variant-numeric:normal;font-feature-settings:normal;text-align:start;writing-mode:lr-tb;text-anchor:start;stroke-width:0.26458332">Duration</tspan></text>
    <text
       xml:space="preserve"
       style="font-style:normal;font-variant:normal;font-weight:bold;font-stretch:normal;font-size:4.23333311px;line-height:1.25;font-family:'Segoe UI';-inkscape-font-specification:'Segoe UI, Bold';font-variant-ligatures:normal;font-variant-caps:normal;font-variant-numeric:normal;font-feature-settings:normal;text-align:start;letter-spacing:0px;word-spacing:0px;writing-mode:lr-tb;text-anchor:start;fill:#000000;fill-opacity:1;stroke:none;stroke-width:0.26458332"
       x="120.68308"
       y="9.7575045"
       id="text839"><tspan
         sodipodi:role="line"
         id="tspan837"
         x="120.68308"
         y="9.7575045"
         style="font-style:normal;font-variant:normal;font-weight:bold;font-stretch:normal;font-size:4.23333311px;font-family:'Segoe UI';-inkscape-font-specification:'Segoe UI, Bold';font-variant-ligatures:normal;font-variant-caps:normal;font-variant-numeric:normal;font-feature-settings:normal;text-align:start;writing-mode:lr-tb;text-anchor:start;stroke-width:0.26458332">Precipitation</tspan></text>
    <text
       xml:space="preserve"
       style="font-style:normal;font-variant:normal;font-weight:normal;font-stretch:normal;font-size:4.23333333px;line-height:1.25;font-family:'Segoe UI';-inkscape-font-specification:'Segoe UI, Normal';font-variant-ligatures:normal;font-variant-caps:normal;font-variant-numeric:normal;font-feature-settings:normal;text-align:start;letter-spacing:0px;word-spacing:0px;writing-mode:lr;text-anchor:start;fill:#000000;fill-opacity:1;stroke:none;stroke-width:0.26458332;"
       x="181.68845"
       y="9.6441107"
       id="text843"><tspan
         sodipodi:role="line"
         id="tspan841"
         x="181.68845"
         y="9.6441107"
         style="font-style:normal;font-variant:normal;font-weight:normal;font-stretch:normal;font-size:4.23333333px;font-family:'Segoe UI';-inkscape-font-specification:'Segoe UI, Normal';font-variant-ligatures:normal;font-variant-caps:normal;font-variant-numeric:normal;font-feature-settings:normal;text-align:start;writing-mode:lr;text-anchor:start;stroke-width:0.26458332;">Initiation</tspan></text>
  </g>
</svg>
