<?xml version="1.0" encoding="UTF-8" standalone="no"?>
<svg
   xmlns:dc="http://purl.org/dc/elements/1.1/"
   xmlns:cc="http://creativecommons.org/ns#"
   xmlns:rdf="http://www.w3.org/1999/02/22-rdf-syntax-ns#"
   xmlns:svg="http://www.w3.org/2000/svg"
   xmlns="http://www.w3.org/2000/svg"
   xmlns:sodipodi="http://sodipodi.sourceforge.net/DTD/sodipodi-0.dtd"
   xmlns:inkscape="http://www.inkscape.org/namespaces/inkscape"
   width="60"
   height="40"
   viewBox="0 0 60 40.000002"
   version="1.1"
   id="svg6"
   sodipodi:docname="upload.svg"
   inkscape:version="0.92.4 (5da689c313, 2019-01-14)">
  <metadata
     id="metadata12">
    <rdf:RDF>
      <cc:Work
         rdf:about="">
        <dc:format>image/svg+xml</dc:format>
        <dc:type
           rdf:resource="http://purl.org/dc/dcmitype/StillImage" />
        <dc:title></dc:title>
      </cc:Work>
    </rdf:RDF>
  </metadata>
  <defs
     id="defs10" />
  <sodipodi:namedview
     pagecolor="#ffffff"
     bordercolor="#666666"
     borderopacity="1"
     objecttolerance="10"
     gridtolerance="10"
     guidetolerance="10"
     inkscape:pageopacity="0"
     inkscape:pageshadow="2"
     inkscape:window-width="1920"
     inkscape:window-height="1027"
     id="namedview8"
     showgrid="false"
     inkscape:zoom="6.4590293"
     inkscape:cx="-11.499939"
     inkscape:cy="18.268999"
     inkscape:window-x="-8"
     inkscape:window-y="-8"
     inkscape:window-maximized="1"
     inkscape:current-layer="svg6" />
  <g
     id="upload"
     transform="translate(15.000354,-7.6753465)"
     style="opacity:1;fill:#000000">
    <g
       id="Group_9"
       data-name="Group 9"
       transform="translate(0,9.136)"
       style="fill:#000000">
      <path
         id="Path_271"
         data-name="Path 271"
         d="m 37.36,320.412 a 2.112,2.112 0 0 0 -1.553,-0.639 h -9.75 a 4.507,4.507 0 0 1 -1.61,2.1 4.189,4.189 0 0 1 -2.523,0.822 h -5.847 a 4.188,4.188 0 0 1 -2.523,-0.822 4.507,4.507 0 0 1 -1.61,-2.1 H 2.192 A 2.114,2.114 0 0 0 0.639,320.412 2.113,2.113 0 0 0 0,321.965 v 7.308 a 2.113,2.113 0 0 0 0.639,1.553 2.114,2.114 0 0 0 1.553,0.639 H 35.808 A 2.183,2.183 0 0 0 38,329.273 v -7.308 a 2.112,2.112 0 0 0 -0.64,-1.553 z m -8.563,7.7 a 1.434,1.434 0 1 1 0.434,-1.028 1.406,1.406 0 0 1 -0.431,1.024 z m 5.846,0 a 1.433,1.433 0 1 1 0.434,-1.028 1.4,1.4 0 0 1 -0.434,1.024 z"
         transform="translate(0,-294.926)"
         style="fill:#000000"
         inkscape:connector-curvature="0" />
      <path
         id="Path_272"
         data-name="Path 272"
         d="M 92.554,22.29 H 98.4 v 10.231 a 1.482,1.482 0 0 0 1.461,1.462 h 5.847 a 1.482,1.482 0 0 0 1.461,-1.462 V 22.29 h 5.846 a 1.365,1.365 0 0 0 1.347,-0.913 1.3,1.3 0 0 0 -0.32,-1.576 L 103.812,9.57 a 1.433,1.433 0 0 0 -2.055,0 L 91.526,19.8 a 1.3,1.3 0 0 0 -0.32,1.576 1.365,1.365 0 0 0 1.348,0.914 z"
         transform="translate(-83.785,-9.136)"
         style="fill:#000000"
         inkscape:connector-curvature="0" />
    </g>
  </g>
</svg>
