<?xml version="1.0" encoding="UTF-8" standalone="no"?>
<svg
   xmlns:dc="http://purl.org/dc/elements/1.1/"
   xmlns:cc="http://creativecommons.org/ns#"
   xmlns:rdf="http://www.w3.org/1999/02/22-rdf-syntax-ns#"
   xmlns:svg="http://www.w3.org/2000/svg"
   xmlns="http://www.w3.org/2000/svg"
   xmlns:sodipodi="http://sodipodi.sourceforge.net/DTD/sodipodi-0.dtd"
   xmlns:inkscape="http://www.inkscape.org/namespaces/inkscape"
   width="38"
   height="36.538"
   viewBox="0 0 38 36.538"
   version="1.1"
   id="svg6"
   sodipodi:docname="upload.svg"
   inkscape:version="0.92.4 (5da689c313, 2019-01-14)">
  <metadata
     id="metadata12">
    <rdf:RDF>
      <cc:Work
         rdf:about="">
        <dc:format>image/svg+xml</dc:format>
        <dc:type
           rdf:resource="http://purl.org/dc/dcmitype/StillImage" />
      </cc:Work>
    </rdf:RDF>
  </metadata>
  <defs
     id="defs10" />
  <sodipodi:namedview
     pagecolor="#ffffff"
     bordercolor="#666666"
     borderopacity="1"
     objecttolerance="10"
     gridtolerance="10"
     guidetolerance="10"
     inkscape:pageopacity="0"
     inkscape:pageshadow="2"
     inkscape:window-width="1920"
     inkscape:window-height="1027"
     id="namedview8"
     showgrid="false"
     inkscape:zoom="6.4590293"
     inkscape:cx="19"
     inkscape:cy="18.268999"
     inkscape:window-x="-8"
     inkscape:window-y="-8"
     inkscape:window-maximized="1"
     inkscape:current-layer="svg6" />
  <g
     id="upload"
     transform="translate(0 -9.136)"
     opacity="0.44"
     style="opacity:1;fill:#000000">
    <g
       id="Group_9"
       data-name="Group 9"
       transform="translate(0 9.136)"
       style="fill:#000000">
      <path
         id="Path_271"
         data-name="Path 271"
         d="M37.36,320.412a2.112,2.112,0,0,0-1.553-.639H26.057a4.507,4.507,0,0,1-1.61,2.1,4.189,4.189,0,0,1-2.523.822H16.077a4.188,4.188,0,0,1-2.523-.822,4.507,4.507,0,0,1-1.61-2.1H2.192a2.114,2.114,0,0,0-1.553.639A2.113,2.113,0,0,0,0,321.965v7.308a2.113,2.113,0,0,0,.639,1.553,2.114,2.114,0,0,0,1.553.639H35.808A2.183,2.183,0,0,0,38,329.273v-7.308A2.112,2.112,0,0,0,37.36,320.412Zm-8.563,7.7a1.434,1.434,0,1,1,.434-1.028A1.406,1.406,0,0,1,28.8,328.108Zm5.846,0a1.433,1.433,0,1,1,.434-1.028A1.4,1.4,0,0,1,34.643,328.108Z"
         transform="translate(0 -294.926)"
         fill="#616161"
         style="fill:#000000" />
      <path
         id="Path_272"
         data-name="Path 272"
         d="M92.554,22.29H98.4V32.521a1.482,1.482,0,0,0,1.461,1.462h5.847a1.482,1.482,0,0,0,1.461-1.462V22.29h5.846a1.365,1.365,0,0,0,1.347-.913,1.3,1.3,0,0,0-.32-1.576L103.812,9.57a1.433,1.433,0,0,0-2.055,0L91.526,19.8a1.3,1.3,0,0,0-.32,1.576A1.365,1.365,0,0,0,92.554,22.29Z"
         transform="translate(-83.785 -9.136)"
         fill="#616161"
         style="fill:#000000" />
    </g>
  </g>
</svg>
