<?xml version="1.0" encoding="UTF-8" standalone="no"?>
<svg
   xmlns:dc="http://purl.org/dc/elements/1.1/"
   xmlns:cc="http://creativecommons.org/ns#"
   xmlns:rdf="http://www.w3.org/1999/02/22-rdf-syntax-ns#"
   xmlns:svg="http://www.w3.org/2000/svg"
   xmlns="http://www.w3.org/2000/svg"
   xmlns:sodipodi="http://sodipodi.sourceforge.net/DTD/sodipodi-0.dtd"
   xmlns:inkscape="http://www.inkscape.org/namespaces/inkscape"
   inkscape:version="1.0 (4035a4fb49, 2020-05-01)"
   sodipodi:docname="upload.svg"
   id="svg4"
   version="1.1"
   fill="none"
   viewBox="0 0 30 30"
   height="30"
   width="30">
  <metadata
     id="metadata10">
    <rdf:RDF>
      <cc:Work
         rdf:about="">
        <dc:format>image/svg+xml</dc:format>
        <dc:type
           rdf:resource="http://purl.org/dc/dcmitype/StillImage" />
      </cc:Work>
    </rdf:RDF>
  </metadata>
  <defs
     id="defs8" />
  <sodipodi:namedview
     inkscape:current-layer="svg4"
     inkscape:window-maximized="1"
     inkscape:window-y="-8"
     inkscape:window-x="-8"
     inkscape:cy="17.214074"
     inkscape:cx="17.596313"
     inkscape:zoom="14.333333"
     showgrid="false"
     id="namedview6"
     inkscape:window-height="1027"
     inkscape:window-width="1920"
     inkscape:pageshadow="2"
     inkscape:pageopacity="0"
     guidetolerance="10"
     gridtolerance="10"
     objecttolerance="10"
     borderopacity="1"
     bordercolor="#666666"
     pagecolor="#ffffff" />
  <path
     style="fill:#000000"
     id="path2"
     fill="#000000"
     d="M6.17578 10.6992C6.9082 11.4311 8.09531 11.4316 8.82715 10.6993L13.125 6.4043V20.625C13.125 21.6604 13.9646 22.5 15 22.5C16.0354 22.5 16.875 21.6604 16.875 20.625V6.4043L21.1746 10.7039C21.9064 11.4357 23.0936 11.4357 23.826 10.7038C24.5578 9.97201 24.5578 8.7849 23.826 8.05248L16.326 0.55248C15.9609 0.183105 15.4805 0 15 0C14.5195 0 14.0391 0.183105 13.6758 0.549316L6.17578 8.05078C5.44219 8.7832 5.44219 9.9668 6.17578 10.6992ZM28.125 20.625H18.75C18.75 22.6963 17.0713 24.375 15 24.375C12.9287 24.375 11.25 22.6963 11.25 20.625H1.875C0.839648 20.625 0 21.4646 0 22.5V28.125C0 29.1604 0.839648 30 1.875 30H28.125C29.1604 30 30 29.1604 30 28.125V22.5C30 21.4629 29.1621 20.625 28.125 20.625ZM25.3125 26.7188C24.5391 26.7188 23.9062 26.0859 23.9062 25.3125C23.9062 24.5391 24.5391 23.9062 25.3125 23.9062C26.0859 23.9062 26.7188 24.5391 26.7188 25.3125C26.7188 26.0859 26.0859 26.7188 25.3125 26.7188Z" />
</svg>
